<svg xmlns="http://www.w3.org/2000/svg" viewBox="0 0 64 80" x="0px" y="0px"><title>Finger-hand-key-password-press-push</title><g><path d="M12,5v6a3,3,0,0,0,3,3h6a3,3,0,0,0,3-3V5a3,3,0,0,0-3-3H15A3,3,0,0,0,12,5ZM22,5v6a1,1,0,0,1-1,1H15a1,1,0,0,1-1-1V5a1,1,0,0,1,1-1h6A1,1,0,0,1,22,5Z"/><path d="M40,5v6a3,3,0,0,0,3,3h6a3,3,0,0,0,3-3V5a3,3,0,0,0-3-3H43A3,3,0,0,0,40,5Zm2,0a1,1,0,0,1,1-1h6a1,1,0,0,1,1,1v6a1,1,0,0,1-1,1H43a1,1,0,0,1-1-1Z"/><path d="M12,24a3,3,0,0,0,3,3h6a3,3,0,0,0,3-3V18a3,3,0,0,0-3-3H15a3,3,0,0,0-3,3Zm2-6a1,1,0,0,1,1-1h6a1,1,0,0,1,1,1v6a1,1,0,0,1-1,1H15a1,1,0,0,1-1-1Z"/><path d="M52,31a3,3,0,0,0-3-3H48a2.966,2.966,0,0,0-.184-1H49a3,3,0,0,0,3-3V18a3,3,0,0,0-3-3H43a3,3,0,0,0-3,3v5H39a2.966,2.966,0,0,0-1,.184V18a3,3,0,0,0-3-3H33v-.5a3.476,3.476,0,0,0-.041-.5H35a3,3,0,0,0,3-3V5a3,3,0,0,0-3-3H29a3,3,0,0,0-3,3v8a.972.972,0,0,0,.154.5,3.478,3.478,0,0,0-.154,1V32.426l-.933-.933a4.941,4.941,0,0,0-1.1-.807A2.993,2.993,0,0,0,21,28H15a3,3,0,0,0-3,3v6a3,3,0,0,0,3,3h8a.968.968,0,0,0,.513-.162L28,44.324V51H26a1,1,0,0,0-1,1v9a1,1,0,0,0,1,1H46a1,1,0,0,0,1-1V52a1,1,0,0,0-1-1H44V47.061A8.194,8.194,0,0,0,48,40h1a3,3,0,0,0,3-3ZM42,18a1,1,0,0,1,1-1h6a1,1,0,0,1,1,1v6a1,1,0,0,1-1,1H42.816A3,3,0,0,0,42,23.78Zm-9-1h2a1,1,0,0,1,1,1v3.184A2.966,2.966,0,0,0,35,21H34a2.966,2.966,0,0,0-1,.184ZM28,5a1,1,0,0,1,1-1h6a1,1,0,0,1,1,1v6a1,1,0,0,1-1,1H31.949A3.482,3.482,0,0,0,28,11.343ZM15,38a1,1,0,0,1-1-1V31a1,1,0,0,1,1-1h6a.974.974,0,0,1,.276.056A4.953,4.953,0,0,0,18,31.492a2.021,2.021,0,0,0,0,2.835L21.676,38ZM45,53v7H27V53H45Zm1-13a6.208,6.208,0,0,1-3.449,5.576A1,1,0,0,0,42,46.47V51H30V43.91a1,1,0,0,0-.293-.707l-10.29-10.3a3,3,0,0,1,3.227-.663,2.877,2.877,0,0,1,1.009.663l2.64,2.64A1,1,0,0,0,28,34.84V14.5a1.5,1.5,0,0,1,.3-.9,1.549,1.549,0,0,1,2.268-.16,1.041,1.041,0,0,1,.135.162,1.491,1.491,0,0,1,.3.9V28h2V24a1,1,0,0,1,1-1h1a1,1,0,0,1,1,1v5h2V26a1,1,0,0,1,1-1h1a1,1,0,0,1,1,1v4h2V28a1,1,0,0,1,1-1h1a1,1,0,0,1,1,1Zm4-3a1,1,0,0,1-1,1H48V30h1a1,1,0,0,1,1,1Z"/><rect x="40" y="55" width="2" height="2"/></g><text x="0" y="79" fill="#000000" font-size="5px" font-weight="bold" font-family="'Helvetica Neue', Helvetica, Arial-Unicode, Arial, Sans-serif">Created by Turkkub</text><text x="0" y="84" fill="#000000" font-size="5px" font-weight="bold" font-family="'Helvetica Neue', Helvetica, Arial-Unicode, Arial, Sans-serif">from the Noun Project</text></svg>